<svg xmlns="http://www.w3.org/2000/svg" width="512" height="512" viewBox="0 0 512 512">
  <defs>
    <linearGradient id="bgGradMask" x1="0%" y1="0%" x2="100%" y2="100%">
      <stop offset="0%" style="stop-color:#F33791;stop-opacity:1" />
      <stop offset="100%" style="stop-color:#FF6B9D;stop-opacity:1" />
    </linearGradient>
    <linearGradient id="lockGradMask" x1="0%" y1="0%" x2="100%" y2="100%">
      <stop offset="0%" style="stop-color:#336907;stop-opacity:1" />
      <stop offset="100%" style="stop-color:#4a8f0a;stop-opacity:1" />
    </linearGradient>
  </defs>
  
  <!-- Full background for maskable -->
  <rect width="512" height="512" fill="url(#bgGradMask)" />
  
  <!-- White inner circle -->
  <circle cx="256" cy="200" r="120" fill="white" />
  
  <!-- Balloon emoji -->
  <ellipse cx="256" cy="165" rx="70" ry="85" fill="#FF6B9D" />
  <ellipse cx="240" cy="140" rx="18" ry="26" fill="white" opacity="0.4" />
  <polygon points="256,250 242,268 270,268" fill="#FF6B9D" />
  <path d="M256 268 Q262 300 256 330 Q250 360 262 380" stroke="#A3A7A1" stroke-width="4" fill="none" stroke-linecap="round" />
  
  <!-- Lock badge -->
  <circle cx="360" cy="360" r="75" fill="url(#lockGradMask)" />
  <circle cx="360" cy="360" r="65" fill="url(#lockGradMask)" stroke="white" stroke-width="5" />
  
  <!-- Lock icon -->
  <rect x="325" y="355" width="70" height="48" rx="7" fill="white" />
  <path d="M336 355 L336 338 C336 320 347 307 360 307 C373 307 384 320 384 338 L384 355" 
        stroke="white" stroke-width="10" fill="none" stroke-linecap="round" />
  <circle cx="360" cy="379" r="7" fill="#336907" />
  <rect x="356" y="379" width="8" height="14" rx="2" fill="#336907" />
</svg>
